<svg xmlns="http://www.w3.org/2000/svg" width="32.105" height="32.105" viewBox="0 0 32.105 32.105"><defs><style>.a{fill:#7984eb;}.b{fill:#4661d1;}.c{fill:#ececf1;}.d{fill:#e2e2e7;}</style></defs><path class="a" d="M32.105,4.7V27.4a4.7,4.7,0,0,1-4.7,4.7H19.815l-1.881-1.881H16.053l-1.881,1.881H4.7A4.7,4.7,0,0,1,0,27.4V4.7A4.7,4.7,0,0,1,4.7,0H27.4A4.7,4.7,0,0,1,32.105,4.7Zm0,0"/><path class="b" d="M286.112,4.7V27.4a4.7,4.7,0,0,1-4.7,4.7h-7.587l-1.881-1.881H271V0h10.409A4.7,4.7,0,0,1,286.112,4.7Zm0,0" transform="translate(-254.007)"/><path class="c" d="M175.406,95.644v3.762h5.644l-.941,5.644h-4.7v11.412h-5.644V105.049H166V99.406h3.762V95.644a5.676,5.676,0,0,1,2.822-4.891A5.746,5.746,0,0,1,175.406,90h5.644v5.644Zm0,0" transform="translate(-155.591 -84.356)"/><path class="d" d="M273.822,95.644v3.762h5.643l-.941,5.644h-4.7v11.412H271V90.752A5.746,5.746,0,0,1,273.822,90h5.643v5.644Zm0,0" transform="translate(-254.007 -84.356)"/></svg>