<svg xmlns="http://www.w3.org/2000/svg" width="32.544" height="32.543" viewBox="0 0 32.544 32.543"><defs><style>.a{fill:#9f1121;}</style></defs><path class="a" d="M32.537,16.749A16.272,16.272,0,1,0,9.165,30.912a.459.459,0,0,0,.66-.431,12.233,12.233,0,0,1,.2-3.066c.206-.886,1.015-4.312,1.547-6.562a8.045,8.045,0,0,0,.082-3.34,6.833,6.833,0,0,1-.118-1.264c0-2.4,1.394-4.2,3.13-4.2a2.173,2.173,0,0,1,2.188,2.436c0,1.484-.945,3.7-1.433,5.759a2.511,2.511,0,0,0,2.561,3.125c3.074,0,5.437-3.241,5.437-7.92A6.828,6.828,0,0,0,16.2,8.414a7.487,7.487,0,0,0-7.81,7.506,6.729,6.729,0,0,0,1.287,3.947.517.517,0,0,1,.12.5c-.131.546-.423,1.721-.48,1.962-.076.317-.251.384-.578.231-2.16-1.006-3.511-4.164-3.511-6.7C5.226,10.4,9.19,5.389,16.654,5.389c6,0,10.663,4.275,10.663,9.989,0,5.961-3.758,10.758-8.975,10.758a5.091,5.091,0,0,1-3.465-1.327.432.432,0,0,0-.724.2c-.272,1.036-.712,2.712-.853,3.258a15.034,15.034,0,0,1-1.331,3.118.46.46,0,0,0,.293.665,16.3,16.3,0,0,0,4.163.5A16.546,16.546,0,0,0,32.537,16.749Z" transform="translate(0 0)"/></svg>