<svg xmlns="http://www.w3.org/2000/svg" width="35.583" height="29.122" viewBox="0 0 35.583 29.122"><defs><style>.a{fill:#25d9f8;}.b{fill:#00c0f1;}</style></defs><g transform="translate(0 0)"><path class="a" d="M13.275,29.127a30.532,30.532,0,0,1-4.716-.374A22.124,22.124,0,0,1,2.108,26.4L0,25.252,2.283,24.5c2.5-.821,4.013-1.33,5.892-2.127a7.837,7.837,0,0,1-4.029-4.668l-.531-1.612.435.067a7.907,7.907,0,0,1-.992-1.223,7.506,7.506,0,0,1-1.273-4.463l.1-1.407.842.326a7.874,7.874,0,0,1-.763-2.139,8.14,8.14,0,0,1,.867-5.48L3.564.428l.981,1.179a18.061,18.061,0,0,0,11.7,6.588,7,7,0,0,1,.425-3.718A6.96,6.96,0,0,1,19.5,1.232,8.5,8.5,0,0,1,24.435.02a7.878,7.878,0,0,1,4.844,2,16.2,16.2,0,0,0,1.773-.592c.389-.147.83-.312,1.381-.5l2.033-.7L33.14,4.009c.087-.007.178-.013.272-.018l2.171-.1L34.3,5.647c-.074.1-.092.129-.118.168-.1.156-.232.35-1.993,2.7a3.318,3.318,0,0,0-.62,2.16,20.429,20.429,0,0,1-1.115,8.217,14.537,14.537,0,0,1-3.9,5.782,17.237,17.237,0,0,1-8.172,3.951A25.137,25.137,0,0,1,13.275,29.127Zm0,0" transform="translate(0 -0.004)"/><path class="b" d="M271.134,4.006,272.46.22l-2.033.7c-.552.19-.992.356-1.381.5a16.142,16.142,0,0,1-1.773.592,7.881,7.881,0,0,0-4.844-2A8.5,8.5,0,0,0,257.5,1.228,7.339,7.339,0,0,0,255.77,2.69V28.739q.3-.055.6-.117a17.241,17.241,0,0,0,8.172-3.951,14.541,14.541,0,0,0,3.9-5.782,20.43,20.43,0,0,0,1.115-8.217,3.314,3.314,0,0,1,.62-2.16c1.761-2.351,1.89-2.545,1.993-2.7.026-.039.045-.068.118-.168l1.283-1.753-2.17.1C271.312,3.992,271.222,4,271.134,4.006Zm0,0" transform="translate(-237.994 0)"/></g></svg>